ffmpeg version 2.8.11-0ubuntu0.16.04.1 Copyright (c) 2000-2017 the FFmpeg developers
  built with gcc 5.4.0 (Ubuntu 5.4.0-6ubuntu1~16.04.4) 20160609
  configuration: --prefix=/usr --extra-version=0ubuntu0.16.04.1 --build-suffix=-ffmpeg --toolchain=hardened --libdir=/usr/lib/x86_64-linux-gnu --incdir=/usr/include/x86_64-linux-gnu --cc=cc --cxx=g++ --enable-gpl --enable-shared --disable-stripping --disable-decoder=libopenjpeg --disable-decoder=libschroedinger --enable-avresample --enable-avisynth --enable-gnutls --enable-ladspa --enable-libass --enable-libbluray --enable-libbs2b --enable-libcaca --enable-libcdio --enable-libflite --enable-libfontconfig --enable-libfreetype --enable-libfribidi --enable-libgme --enable-libgsm --enable-libmodplug --enable-libmp3lame --enable-libopenjpeg --enable-libopus --enable-libpulse --enable-librtmp --enable-libschroedinger --enable-libshine --enable-libsnappy --enable-libsoxr --enable-libspeex --enable-libssh --enable-libtheora --enable-libtwolame --enable-libvorbis --enable-libvpx --enable-libwavpack --enable-libwebp --enable-libx265 --enable-libxvid --enable-libzvbi --enable-openal --enable-opengl --enable-x11grab --enable-libdc1394 --enable-libiec61883 --enable-libzmq --enable-frei0r --enable-libx264 --enable-libopencv
  libavutil      54. 31.100 / 54. 31.100
  libavcodec     56. 60.100 / 56. 60.100
  libavformat    56. 40.101 / 56. 40.101
  libavdevice    56.  4.100 / 56.  4.100
  libavfilter     5. 40.101 /  5. 40.101
  libavresample   2.  1.  0 /  2.  1.  0
  libswscale      3.  1.101 /  3.  1.101
  libswresample   1.  2.101 /  1.  2.101
  libpostproc    53.  3.100 / 53.  3.100
Input #0, rawvideo, from 'pipe:':
  Duration: N/A, start: 0.000000, bitrate: 174960 kb/s
    Stream #0:0: Video: rawvideo (RGB[24] / 0x18424752), rgb24, 720x405, 174960 kb/s, 25 tbr, 25 tbn, 25 tbc
No pixel format specified, yuv444p for H.264 encoding chosen.
Use -pix_fmt yuv420p for compatibility with outdated media players.
[libx264 @ 0x162b440] using cpu capabilities: MMX2 SSE2Fast SSSE3 SSE4.2 AVX FMA3 AVX2 LZCNT BMI2
[libx264 @ 0x162b440] profile High 4:4:4 Predictive, level 3.0, 4:4:4 8-bit
[libx264 @ 0x162b440] 264 - core 148 r2643 5c65704 - H.264/MPEG-4 AVC codec - Copyleft 2003-2015 - http://www.videolan.org/x264.html - options: cabac=1 ref=3 deblock=1:0:0 analyse=0x3:0x113 me=hex subme=7 psy=1 psy_rd=1.00:0.00 mixed_ref=1 me_range=16 chroma_me=1 trellis=1 8x8dct=1 cqm=0 deadzone=21,11 fast_pskip=1 chroma_qp_offset=4 threads=6 lookahead_threads=1 sliced_threads=0 nr=0 decimate=1 interlaced=0 bluray_compat=0 constrained_intra=0 bframes=3 b_pyramid=2 b_adapt=1 b_bias=0 direct=1 weightb=1 open_gop=0 weightp=2 keyint=250 keyint_min=25 scenecut=40 intra_refresh=0 rc_lookahead=40 rc=crf mbtree=1 crf=23.0 qcomp=0.60 qpmin=0 qpmax=69 qpstep=4 ip_ratio=1.40 aq=1:1.00
Output #0, mp4, to 'project_video_out.mp4':
  Metadata:
    encoder         : Lavf56.40.101
    Stream #0:0: Video: h264 (libx264) ([33][0][0][0] / 0x0021), yuv444p, 720x405, q=-1--1, 25 fps, 12800 tbn, 25 tbc
    Metadata:
      encoder         : Lavc56.60.100 libx264
Stream mapping:
  Stream #0:0 -> #0:0 (rawvideo (native) -> h264 (libx264))
frame=    5 fps=0.0 q=0.0 size=       0kB time=00:00:00.00 bitrate=N/A    frame=    8 fps=7.2 q=0.0 size=       0kB time=00:00:00.00 bitrate=N/A    frame=   11 fps=6.4 q=0.0 size=       0kB time=00:00:00.00 bitrate=N/A    frame=   14 fps=6.2 q=0.0 size=       0kB time=00:00:00.00 bitrate=N/A    frame=   17 fps=6.2 q=0.0 size=       0kB time=00:00:00.00 bitrate=N/A    frame=   20 fps=5.7 q=0.0 size=       0kB time=00:00:00.00 bitrate=N/A    frame=   23 fps=5.5 q=0.0 size=       0kB time=00:00:00.00 bitrate=N/A    frame=   26 fps=5.3 q=0.0 size=       0kB time=00:00:00.00 bitrate=N/A    frame=   29 fps=5.3 q=0.0 size=       0kB time=00:00:00.00 bitrate=N/A    frame=   32 fps=5.3 q=0.0 size=       0kB time=00:00:00.00 bitrate=N/A    frame=   35 fps=5.3 q=0.0 size=       0kB time=00:00:00.00 bitrate=N/A    frame=   38 fps=5.2 q=0.0 size=       0kB time=00:00:00.00 bitrate=N/A    frame=   41 fps=5.2 q=0.0 size=       0kB time=00:00:00.00 bitrate=N/A    frame=   44 fps=5.1 q=0.0 size=       0kB time=00:00:00.00 bitrate=N/A    frame=   47 fps=5.0 q=0.0 size=       0kB time=00:00:00.00 bitrate=N/A    frame=   50 fps=5.0 q=0.0 size=       0kB time=00:00:00.00 bitrate=N/A    frame=   53 fps=5.0 q=28.0 size=      24kB time=00:00:00.04 bitrate=4989.6kbits/s    frame=   56 fps=5.0 q=28.0 size=      37kB time=00:00:00.16 bitrate=1870.0kbits/s    frame=   59 fps=5.0 q=28.0 size=      45kB time=00:00:00.28 bitrate=1315.6kbits/s    frame=   62 fps=5.0 q=28.0 size=      58kB time=00:00:00.40 bitrate=1181.5kbits/s    frame=   65 fps=4.9 q=28.0 size=      67kB time=00:00:00.52 bitrate=1058.6kbits/s    frame=   68 fps=4.9 q=28.0 size=      80kB time=00:00:00.64 bitrate=1024.5kbits/s    frame=   71 fps=4.9 q=28.0 size=      89kB time=00:00:00.76 bitrate= 964.0kbits/s    frame=   74 fps=4.9 q=28.0 size=     104kB time=00:00:00.88 bitrate= 965.3kbits/s    frame=   77 fps=4.9 q=28.0 size=     113kB time=00:00:01.00 bitrate= 928.3kbits/s    frame=   80 fps=4.8 q=28.0 size=     128kB time=00:00:01.12 bitrate= 936.2kbits/s    frame=   83 fps=4.8 q=28.0 size=     138kB time=00:00:01.24 bitrate= 909.0kbits/s    frame=   85 fps=4.8 q=28.0 size=     145kB time=00:00:01.32 bitrate= 901.1kbits/s    frame=   87 fps=4.8 q=28.0 size=     153kB time=00:00:01.40 bitrate= 896.1kbits/s    frame=   90 fps=4.8 q=28.0 size=     167kB time=00:00:01.52 bitrate= 900.5kbits/s    frame=   92 fps=4.7 q=28.0 size=     175kB time=00:00:01.60 bitrate= 893.6kbits/s    frame=   95 fps=4.7 q=28.0 size=     184kB time=00:00:01.72 bitrate= 874.9kbits/s    frame=   97 fps=4.7 q=28.0 size=     191kB time=00:00:01.80 bitrate= 868.4kbits/s    frame=  100 fps=4.7 q=28.0 size=     204kB time=00:00:01.92 bitrate= 870.6kbits/s    frame=  102 fps=4.6 q=28.0 size=     211kB time=00:00:02.00 bitrate= 866.3kbits/s    frame=  105 fps=4.6 q=28.0 size=     221kB time=00:00:02.12 bitrate= 852.9kbits/s    frame=  108 fps=4.6 q=28.0 size=     233kB time=00:00:02.24 bitrate= 850.7kbits/s    frame=  110 fps=4.6 q=28.0 size=     240kB time=00:00:02.32 bitrate= 848.1kbits/s    frame=  112 fps=4.6 q=28.0 size=     247kB time=00:00:02.40 bitrate= 842.0kbits/s    frame=  114 fps=4.6 q=28.0 size=     254kB time=00:00:02.48 bitrate= 838.2kbits/s    frame=  117 fps=4.6 q=28.0 size=     262kB time=00:00:02.60 bitrate= 826.3kbits/s    frame=  119 fps=4.5 q=28.0 size=     268kB time=00:00:02.68 bitrate= 820.7kbits/s    frame=  121 fps=4.5 q=28.0 size=     275kB time=00:00:02.76 bitrate= 816.9kbits/s    frame=  124 fps=4.5 q=28.0 size=     287kB time=00:00:02.88 bitrate= 815.2kbits/s    frame=  126 fps=4.5 q=28.0 size=     293kB time=00:00:02.96 bitrate= 811.9kbits/s    frame=  129 fps=4.5 q=28.0 size=     302kB time=00:00:03.08 bitrate= 804.0kbits/s    frame=  131 fps=4.5 q=28.0 size=     309kB time=00:00:03.16 bitrate= 802.2kbits/s    frame=  134 fps=4.5 q=28.0 size=     321kB time=00:00:03.28 bitrate= 802.8kbits/s    frame=  136 fps=4.5 q=28.0 size=     328kB time=00:00:03.36 bitrate= 800.8kbits/s    frame=  139 fps=4.5 q=28.0 size=     337kB time=00:00:03.48 bitrate= 792.7kbits/s    frame=  142 fps=4.5 q=28.0 size=     349kB time=00:00:03.60 bitrate= 793.9kbits/s    frame=  145 fps=4.5 q=28.0 size=     361kB time=00:00:03.72 bitrate= 795.0kbits/s    frame=  147 fps=4.5 q=28.0 size=     367kB time=00:00:03.80 bitrate= 792.0kbits/s    frame=  149 fps=4.5 q=28.0 size=     374kB time=00:00:03.88 bitrate= 789.4kbits/s    frame=  152 fps=4.5 q=28.0 size=     382kB time=00:00:04.00 bitrate= 782.6kbits/s    frame=  155 fps=4.5 q=28.0 size=     394kB time=00:00:04.12 bitrate= 784.2kbits/s    frame=  157 fps=4.5 q=28.0 size=     401kB time=00:00:04.20 bitrate= 783.0kbits/s    frame=  160 fps=4.5 q=28.0 size=     410kB time=00:00:04.32 bitrate= 776.6kbits/s    frame=  163 fps=4.5 q=28.0 size=     422kB time=00:00:04.44 bitrate= 777.8kbits/s    frame=  166 fps=4.5 q=28.0 size=     430kB time=00:00:04.56 bitrate= 773.4kbits/s    frame=  169 fps=4.5 q=28.0 size=     443kB time=00:00:04.68 bitrate= 774.6kbits/s    frame=  171 fps=4.4 q=28.0 size=     450kB time=00:00:04.76 bitrate= 774.6kbits/s    frame=  174 fps=4.5 q=28.0 size=     459kB time=00:00:04.88 bitrate= 770.4kbits/s    frame=  177 fps=4.5 q=28.0 size=     471kB time=00:00:05.00 bitrate= 772.1kbits/s    frame=  180 fps=4.5 q=28.0 size=     480kB time=00:00:05.12 bitrate= 767.6kbits/s    frame=  183 fps=4.5 q=28.0 size=     492kB time=00:00:05.24 bitrate= 768.9kbits/s    frame=  186 fps=4.5 q=28.0 size=     500kB time=00:00:05.36 bitrate= 764.9kbits/s    frame=  189 fps=4.5 q=28.0 size=     513kB time=00:00:05.48 bitrate= 766.2kbits/s    frame=  192 fps=4.5 q=28.0 size=     521kB time=00:00:05.60 bitrate= 762.7kbits/s    frame=  196 fps=4.5 q=28.0 size=     536kB time=00:00:05.76 bitrate= 762.5kbits/s    frame=  199 fps=4.6 q=28.0 size=     549kB time=00:00:05.88 bitrate= 764.2kbits/s    frame=  202 fps=4.6 q=28.0 size=     559kB time=00:00:06.00 bitrate= 763.0kbits/s    frame=  205 fps=4.6 q=28.0 size=     573kB time=00:00:06.12 bitrate= 766.4kbits/s    frame=  208 fps=4.6 q=28.0 size=     581kB time=00:00:06.24 bitrate= 762.9kbits/s    frame=  211 fps=4.6 q=28.0 size=     594kB time=00:00:06.36 bitrate= 765.2kbits/s    frame=  214 fps=4.6 q=28.0 size=     602kB time=00:00:06.48 bitrate= 761.5kbits/s    frame=  217 fps=4.6 q=28.0 size=     611kB time=00:00:06.60 bitrate= 758.4kbits/s    frame=  220 fps=4.6 q=28.0 size=     623kB time=00:00:06.72 bitrate= 759.2kbits/s    frame=  223 fps=4.6 q=28.0 size=     631kB time=00:00:06.84 bitrate= 755.3kbits/s    frame=  226 fps=4.6 q=28.0 size=     643kB time=00:00:06.96 bitrate= 756.3kbits/s    frame=  229 fps=4.6 q=28.0 size=     651kB time=00:00:07.08 bitrate= 753.0kbits/s    frame=  232 fps=4.6 q=28.0 size=     663kB time=00:00:07.20 bitrate= 754.7kbits/s    frame=  235 fps=4.6 q=28.0 size=     672kB time=00:00:07.32 bitrate= 752.2kbits/s    frame=  238 fps=4.6 q=28.0 size=     684kB time=00:00:07.44 bitrate= 753.4kbits/s    frame=  241 fps=4.6 q=28.0 size=     693kB time=00:00:07.56 bitrate= 750.5kbits/s    frame=  244 fps=4.7 q=28.0 size=     705kB time=00:00:07.68 bitrate= 751.5kbits/s    frame=  247 fps=4.7 q=28.0 size=     713kB time=00:00:07.80 bitrate= 749.1kbits/s    frame=  250 fps=4.7 q=28.0 size=     726kB time=00:00:07.92 bitrate= 750.7kbits/s    frame=  253 fps=4.7 q=28.0 size=     734kB time=00:00:08.04 bitrate= 748.2kbits/s    frame=  256 fps=4.7 q=28.0 size=     747kB time=00:00:08.16 bitrate= 749.6kbits/s    frame=  259 fps=4.7 q=28.0 size=     755kB time=00:00:08.28 bitrate= 746.8kbits/s    frame=  262 fps=4.7 q=28.0 size=     768kB time=00:00:08.40 bitrate= 748.7kbits/s    frame=  265 fps=4.7 q=28.0 size=     776kB time=00:00:08.52 bitrate= 746.1kbits/s    frame=  268 fps=4.7 q=28.0 size=     789kB time=00:00:08.64 bitrate= 747.7kbits/s    frame=  271 fps=4.7 q=28.0 size=     798kB time=00:00:08.76 bitrate= 746.0kbits/s    frame=  274 fps=4.7 q=28.0 size=     811kB time=00:00:08.88 bitrate= 748.1kbits/s    frame=  277 fps=4.7 q=28.0 size=     820kB time=00:00:09.00 bitrate= 746.8kbits/s    frame=  280 fps=4.7 q=28.0 size=     834kB time=00:00:09.12 bitrate= 749.2kbits/s    frame=  283 fps=4.7 q=28.0 size=     844kB time=00:00:09.24 bitrate= 748.0kbits/s    frame=  286 fps=4.7 q=28.0 size=     857kB time=00:00:09.36 bitrate= 749.9kbits/s    frame=  289 fps=4.7 q=28.0 size=     866kB time=00:00:09.48 bitrate= 748.6kbits/s    frame=  292 fps=4.7 q=28.0 size=     882kB time=00:00:09.60 bitrate= 752.3kbits/s    frame=  295 fps=4.7 q=28.0 size=     891kB time=00:00:09.72 bitrate= 751.1kbits/s    frame=  299 fps=4.7 q=28.0 size=     906kB time=00:00:09.88 bitrate= 750.8kbits/s    frame=  302 fps=4.7 q=28.0 size=     936kB time=00:00:10.00 bitrate= 766.6kbits/s    frame=  305 fps=4.7 q=28.0 size=     945kB time=00:00:10.12 bitrate= 764.6kbits/s    frame=  308 fps=4.7 q=28.0 size=     958kB time=00:00:10.24 bitrate= 766.7kbits/s    frame=  311 fps=4.7 q=28.0 size=     968kB time=00:00:10.36 bitrate= 765.6kbits/s    frame=  314 fps=4.7 q=28.0 size=     983kB time=00:00:10.48 bitrate= 768.1kbits/s    frame=  317 fps=4.7 q=28.0 size=     992kB time=00:00:10.60 bitrate= 766.8kbits/s    frame=  321 fps=4.7 q=28.0 size=    1008kB time=00:00:10.76 bitrate= 767.7kbits/s    frame=  324 fps=4.7 q=28.0 size=    1023kB time=00:00:10.88 bitrate= 770.5kbits/s    frame=  327 fps=4.7 q=28.0 size=    1033kB time=00:00:11.00 bitrate= 769.6kbits/s    frame=  331 fps=4.8 q=28.0 size=    1051kB time=00:00:11.16 bitrate= 771.2kbits/s    frame=  334 fps=4.8 q=28.0 size=    1061kB time=00:00:11.28 bitrate= 770.3kbits/s    frame=  337 fps=4.8 q=28.0 size=    1070kB time=00:00:11.40 bitrate= 768.9kbits/s    frame=  340 fps=4.8 q=28.0 size=    1080kB time=00:00:11.52 bitrate= 767.8kbits/s    frame=  343 fps=4.8 q=28.0 size=    1093kB time=00:00:11.64 bitrate= 769.2kbits/s    frame=  346 fps=4.8 q=28.0 size=    1102kB time=00:00:11.76 bitrate= 767.5kbits/s    frame=  349 fps=4.8 q=28.0 size=    1115kB time=00:00:11.88 bitrate= 769.0kbits/s    frame=  352 fps=4.8 q=28.0 size=    1125kB time=00:00:12.00 bitrate= 768.1kbits/s    frame=  355 fps=4.8 q=28.0 size=    1139kB time=00:00:12.12 bitrate= 769.9kbits/s    frame=  358 fps=4.8 q=28.0 size=    1149kB time=00:00:12.24 bitrate= 769.1kbits/s    frame=  361 fps=4.8 q=28.0 size=    1160kB time=00:00:12.36 bitrate= 768.7kbits/s    frame=  364 fps=4.8 q=28.0 size=    1170kB time=00:00:12.48 bitrate= 768.0kbits/s    frame=  367 fps=4.8 q=28.0 size=    1180kB time=00:00:12.60 bitrate= 767.0kbits/s    frame=  370 fps=4.8 q=28.0 size=    1190kB time=00:00:12.72 bitrate= 766.1kbits/s    frame=  374 fps=4.8 q=28.0 size=    1207kB time=00:00:12.88 bitrate= 767.5kbits/s    frame=  377 fps=4.8 q=28.0 size=    1222kB time=00:00:13.00 bitrate= 769.9kbits/s    frame=  380 fps=4.8 q=28.0 size=    1232kB time=00:00:13.12 bitrate= 769.4kbits/s    frame=  384 fps=4.8 q=28.0 size=    1252kB time=00:00:13.28 bitrate= 772.1kbits/s    frame=  387 fps=4.8 q=28.0 size=    1269kB time=00:00:13.40 bitrate= 775.8kbits/s    frame=  390 fps=4.8 q=28.0 size=    1281kB time=00:00:13.52 bitrate= 775.9kbits/s    frame=  393 fps=4.8 q=28.0 size=    1299kB time=00:00:13.64 bitrate= 780.4kbits/s    frame=  396 fps=4.8 q=28.0 size=    1312kB time=00:00:13.76 bitrate= 781.1kbits/s    frame=  399 fps=4.8 q=28.0 size=    1331kB time=00:00:13.88 bitrate= 785.8kbits/s    frame=  402 fps=4.8 q=28.0 size=    1345kB time=00:00:14.00 bitrate= 786.9kbits/s    frame=  405 fps=4.8 q=28.0 size=    1363kB time=00:00:14.12 bitrate= 790.8kbits/s    frame=  408 fps=4.8 q=28.0 size=    1375kB time=00:00:14.24 bitrate= 791.3kbits/s    frame=  411 fps=4.8 q=28.0 size=    1394kB time=00:00:14.36 bitrate= 795.2kbits/s    frame=  414 fps=4.8 q=28.0 size=    1407kB time=00:00:14.48 bitrate= 796.2kbits/s    frame=  417 fps=4.8 q=28.0 size=    1427kB time=00:00:14.60 bitrate= 800.5kbits/s    frame=  419 fps=4.8 q=28.0 size=    1438kB time=00:00:14.68 bitrate= 802.2kbits/s    frame=  421 fps=4.8 q=28.0 size=    1449kB time=00:00:14.76 bitrate= 804.5kbits/s    frame=  423 fps=4.8 q=28.0 size=    1461kB time=00:00:14.84 bitrate= 806.4kbits/s    frame=  425 fps=4.8 q=28.0 size=    1473kB time=00:00:14.92 bitrate= 808.6kbits/s    frame=  427 fps=4.8 q=28.0 size=    1484kB time=00:00:15.00 bitrate= 810.3kbits/s    frame=  429 fps=4.8 q=28.0 size=    1496kB time=00:00:15.08 bitrate= 812.5kbits/s    frame=  431 fps=4.8 q=28.0 size=    1507kB time=00:00:15.16 bitrate= 814.6kbits/s    frame=  433 fps=4.8 q=28.0 size=    1518kB time=00:00:15.24 bitrate= 816.1kbits/s    frame=  436 fps=4.8 q=28.0 size=    1530kB time=00:00:15.36 bitrate= 816.2kbits/s    frame=  439 fps=4.7 q=28.0 size=    1549kB time=00:00:15.48 bitrate= 819.6kbits/s    frame=  441 fps=4.7 q=28.0 size=    1560kB time=00:00:15.56 bitrate= 821.1kbits/s    frame=  444 fps=4.7 q=28.0 size=    1573kB time=00:00:15.68 bitrate= 821.6kbits/s    frame=  446 fps=4.7 q=28.0 size=    1582kB time=00:00:15.76 bitrate= 822.6kbits/s    frame=  448 fps=4.7 q=28.0 size=    1592kB time=00:00:15.84 bitrate= 823.5kbits/s    frame=  450 fps=4.7 q=28.0 size=    1602kB time=00:00:15.92 bitrate= 824.3kbits/s    frame=  452 fps=4.7 q=28.0 size=    1612kB time=00:00:16.00 bitrate= 825.4kbits/s    frame=  454 fps=4.7 q=28.0 size=    1622kB time=00:00:16.08 bitrate= 826.1kbits/s    frame=  456 fps=4.7 q=28.0 size=    1631kB time=00:00:16.16 bitrate= 827.0kbits/s    frame=  459 fps=4.7 q=28.0 size=    1649kB time=00:00:16.28 bitrate= 829.9kbits/s    frame=  462 fps=4.7 q=28.0 size=    1661kB time=00:00:16.40 bitrate= 829.8kbits/s    frame=  465 fps=4.7 q=28.0 size=    1679kB time=00:00:16.52 bitrate= 832.7kbits/s    frame=  468 fps=4.7 q=28.0 size=    1692kB time=00:00:16.64 bitrate= 833.1kbits/s    frame=  470 fps=4.7 q=28.0 size=    1703kB time=00:00:16.72 bitrate= 834.4kbits/s    frame=  472 fps=4.7 q=28.0 size=    1715kB time=00:00:16.80 bitrate= 836.4kbits/s    frame=  474 fps=4.7 q=28.0 size=    1726kB time=00:00:16.88 bitrate= 837.7kbits/s    frame=  477 fps=4.7 q=28.0 size=    1746kB time=00:00:17.00 bitrate= 841.4kbits/s    frame=  480 fps=4.7 q=28.0 size=    1759kB time=00:00:17.12 bitrate= 841.9kbits/s    frame=  483 fps=4.7 q=28.0 size=    1778kB time=00:00:17.24 bitrate= 845.0kbits/s    frame=  485 fps=4.7 q=28.0 size=    1788kB time=00:00:17.32 bitrate= 845.9kbits/s    frame=  488 fps=4.7 q=28.0 size=    1800kB time=00:00:17.44 bitrate= 845.5kbits/s    frame=  490 fps=4.7 q=28.0 size=    1810kB time=00:00:17.52 bitrate= 846.2kbits/s    frame=  493 fps=4.7 q=28.0 size=    1827kB time=00:00:17.64 bitrate= 848.6kbits/s    frame=  496 fps=4.7 q=28.0 size=    1839kB time=00:00:17.76 bitrate= 848.3kbits/s    frame=  500 fps=4.7 q=28.0 size=    1852kB time=00:00:17.92 bitrate= 846.6kbits/s    frame=  503 fps=4.7 q=28.0 size=    1869kB time=00:00:18.04 bitrate= 848.7kbits/s    frame=  506 fps=4.7 q=28.0 size=    1879kB time=00:00:18.16 bitrate= 847.6kbits/s    frame=  509 fps=4.7 q=28.0 size=    1890kB time=00:00:18.28 bitrate= 846.9kbits/s    frame=  512 fps=4.7 q=28.0 size=    1901kB time=00:00:18.40 bitrate= 846.3kbits/s    frame=  515 fps=4.7 q=28.0 size=    1912kB time=00:00:18.52 bitrate= 845.6kbits/s    frame=  518 fps=4.7 q=28.0 size=    1922kB time=00:00:18.64 bitrate= 844.6kbits/s    frame=  521 fps=4.7 q=28.0 size=    1937kB time=00:00:18.76 bitrate= 845.8kbits/s    frame=  524 fps=4.7 q=28.0 size=    1947kB time=00:00:18.88 bitrate= 844.7kbits/s    frame=  528 fps=4.7 q=28.0 size=    1964kB time=00:00:19.04 bitrate= 844.9kbits/s    frame=  531 fps=4.7 q=28.0 size=    1981kB time=00:00:19.16 bitrate= 846.9kbits/s    frame=  534 fps=4.7 q=28.0 size=    1992kB time=00:00:19.28 bitrate= 846.2kbits/s    frame=  537 fps=4.7 q=28.0 size=    2009kB time=00:00:19.40 bitrate= 848.3kbits/s    frame=  540 fps=4.7 q=28.0 size=    2020kB time=00:00:19.52 bitrate= 847.8kbits/s    frame=  543 fps=4.7 q=28.0 size=    2038kB time=00:00:19.64 bitrate= 850.2kbits/s    frame=  546 fps=4.7 q=25.0 size=    2050kB time=00:00:19.76 bitrate= 849.9kbits/s    frame=  550 fps=4.7 q=28.0 size=    2069kB time=00:00:19.92 bitrate= 851.0kbits/s    frame=  553 fps=4.7 q=28.0 size=    2109kB time=00:00:20.04 bitrate= 862.1kbits/s    frame=  556 fps=4.7 q=28.0 size=    2133kB time=00:00:20.16 bitrate= 866.7kbits/s    frame=  559 fps=4.7 q=28.0 size=    2149kB time=00:00:20.28 bitrate= 868.0kbits/s    frame=  562 fps=4.7 q=28.0 size=    2175kB time=00:00:20.40 bitrate= 873.4kbits/s    frame=  565 fps=4.7 q=28.0 size=    2208kB time=00:00:20.52 bitrate= 881.3kbits/s    frame=  568 fps=4.7 q=28.0 size=    2231kB time=00:00:20.64 bitrate= 885.7kbits/s    frame=  571 fps=4.7 q=28.0 size=    2265kB time=00:00:20.76 bitrate= 893.9kbits/s    frame=  574 fps=4.7 q=28.0 size=    2291kB time=00:00:20.88 bitrate= 898.8kbits/s    frame=  577 fps=4.7 q=28.0 size=    2326kB time=00:00:21.00 bitrate= 907.3kbits/s    frame=  580 fps=4.7 q=28.0 size=    2354kB time=00:00:21.12 bitrate= 913.1kbits/s    frame=  583 fps=4.7 q=28.0 size=    2389kB time=00:00:21.24 bitrate= 921.5kbits/s    frame=  586 fps=4.7 q=28.0 size=    2417kB time=00:00:21.36 bitrate= 926.9kbits/s    frame=  589 fps=4.7 q=28.0 size=    2450kB time=00:00:21.48 bitrate= 934.5kbits/s    frame=  592 fps=4.7 q=28.0 size=    2478kB time=00:00:21.60 bitrate= 939.9kbits/s    frame=  595 fps=4.7 q=28.0 size=    2505kB time=00:00:21.72 bitrate= 944.7kbits/s    frame=  597 fps=4.7 q=28.0 size=    2519kB time=00:00:21.80 bitrate= 946.6kbits/s    frame=  600 fps=4.7 q=28.0 size=    2537kB time=00:00:21.92 bitrate= 948.1kbits/s    frame=  603 fps=4.7 q=28.0 size=    2561kB time=00:00:22.04 bitrate= 952.1kbits/s    frame=  606 fps=4.7 q=28.0 size=    2581kB time=00:00:22.16 bitrate= 954.3kbits/s    frame=  609 fps=4.7 q=28.0 size=    2607kB time=00:00:22.28 bitrate= 958.7kbits/s    frame=  612 fps=4.7 q=28.0 size=    2628kB time=00:00:22.40 bitrate= 960.9kbits/s    frame=  615 fps=4.7 q=28.0 size=    2653kB time=00:00:22.52 bitrate= 965.1kbits/s    frame=  618 fps=4.7 q=28.0 size=    2671kB time=00:00:22.64 bitrate= 966.6kbits/s    frame=  621 fps=4.7 q=28.0 size=    2694kB time=00:00:22.76 bitrate= 969.6kbits/s    frame=  624 fps=4.7 q=28.0 size=    2712kB time=00:00:22.88 bitrate= 970.9kbits/s    frame=  627 fps=4.7 q=28.0 size=    2734kB time=00:00:23.00 bitrate= 973.8kbits/s    frame=  630 fps=4.7 q=28.0 size=    2751kB time=00:00:23.12 bitrate= 974.6kbits/s    frame=  633 fps=4.7 q=28.0 size=    2772kB time=00:00:23.24 bitrate= 977.0kbits/s    frame=  636 fps=4.7 q=28.0 size=    2788kB time=00:00:23.36 bitrate= 977.6kbits/s    frame=  639 fps=4.7 q=28.0 size=    2808kB time=00:00:23.48 bitrate= 979.8kbits/s    frame=  642 fps=4.7 q=28.0 size=    2824kB time=00:00:23.60 bitrate= 980.2kbits/s    frame=  645 fps=4.7 q=28.0 size=    2844kB time=00:00:23.72 bitrate= 982.2kbits/s    frame=  648 fps=4.7 q=28.0 size=    2859kB time=00:00:23.84 bitrate= 982.5kbits/s    frame=  651 fps=4.7 q=28.0 size=    2879kB time=00:00:23.96 bitrate= 984.3kbits/s    frame=  654 fps=4.7 q=28.0 size=    2892kB time=00:00:24.08 bitrate= 984.0kbits/s    frame=  657 fps=4.7 q=28.0 size=    2912kB time=00:00:24.20 bitrate= 985.9kbits/s    frame=  660 fps=4.7 q=28.0 size=    2927kB time=00:00:24.32 bitrate= 986.1kbits/s    frame=  663 fps=4.7 q=28.0 size=    2949kB time=00:00:24.44 bitrate= 988.5kbits/s    frame=  666 fps=4.7 q=28.0 size=    2965kB time=00:00:24.56 bitrate= 989.1kbits/s    frame=  669 fps=4.7 q=28.0 size=    2990kB time=00:00:24.68 bitrate= 992.3kbits/s    frame=  672 fps=4.7 q=28.0 size=    3014kB time=00:00:24.80 bitrate= 995.5kbits/s    frame=  675 fps=4.7 q=28.0 size=    3036kB time=00:00:24.92 bitrate= 997.9kbits/s    frame=  677 fps=4.7 q=28.0 size=    3052kB time=00:00:25.00 bitrate=1000.0kbits/s    frame=  680 fps=4.7 q=28.0 size=    3081kB time=00:00:25.12 bitrate=1004.7kbits/s    frame=  682 fps=4.7 q=28.0 size=    3096kB time=00:00:25.20 bitrate=1006.4kbits/s    frame=  685 fps=4.7 q=28.0 size=    3116kB time=00:00:25.32 bitrate=1008.3kbits/s    frame=  688 fps=4.7 q=28.0 size=    3143kB time=00:00:25.44 bitrate=1012.2kbits/s    frame=  690 fps=4.7 q=28.0 size=    3159kB time=00:00:25.52 bitrate=1014.0kbits/s    frame=  693 fps=4.7 q=28.0 size=    3178kB time=00:00:25.64 bitrate=1015.3kbits/s    frame=  696 fps=4.7 q=28.0 size=    3197kB time=00:00:25.76 bitrate=1016.7kbits/s    frame=  700 fps=4.7 q=28.0 size=    3214kB time=00:00:25.92 bitrate=1015.8kbits/s    frame=  703 fps=4.7 q=28.0 size=    3223kB time=00:00:26.04 bitrate=1014.0kbits/s    frame=  706 fps=4.7 q=28.0 size=    3235kB time=00:00:26.16 bitrate=1013.2kbits/s    frame=  709 fps=4.7 q=28.0 size=    3243kB time=00:00:26.28 bitrate=1011.0kbits/s    frame=  712 fps=4.7 q=28.0 size=    3257kB time=00:00:26.40 bitrate=1010.6kbits/s    frame=  715 fps=4.7 q=28.0 size=    3265kB time=00:00:26.52 bitrate=1008.6kbits/s    frame=  718 fps=4.7 q=28.0 size=    3274kB time=00:00:26.64 bitrate=1006.8kbits/s    frame=  721 fps=4.7 q=28.0 size=    3283kB time=00:00:26.76 bitrate=1004.9kbits/s    frame=  724 fps=4.7 q=28.0 size=    3291kB time=00:00:26.88 bitrate=1002.9kbits/s    frame=  727 fps=4.7 q=28.0 size=    3299kB time=00:00:27.00 bitrate=1001.0kbits/s    frame=  730 fps=4.7 q=28.0 size=    3308kB time=00:00:27.12 bitrate= 999.2kbits/s    frame=  733 fps=4.8 q=28.0 size=    3316kB time=00:00:27.24 bitrate= 997.3kbits/s    frame=  736 fps=4.8 q=28.0 size=    3325kB time=00:00:27.36 bitrate= 995.5kbits/s    frame=  739 fps=4.7 q=28.0 size=    3334kB time=00:00:27.48 bitrate= 993.8kbits/s    frame=  741 fps=4.7 q=28.0 size=    3342kB time=00:00:27.56 bitrate= 993.2kbits/s    frame=  744 fps=4.7 q=28.0 size=    3350kB time=00:00:27.68 bitrate= 991.5kbits/s    frame=  747 fps=4.7 q=28.0 size=    3359kB time=00:00:27.80 bitrate= 989.8kbits/s    frame=  750 fps=4.7 q=28.0 size=    3368kB time=00:00:27.92 bitrate= 988.3kbits/s    frame=  753 fps=4.7 q=28.0 size=    3377kB time=00:00:28.04 bitrate= 986.7kbits/s    frame=  755 fps=4.7 q=28.0 size=    7174kB time=00:00:28.12 bitrate=2089.8kbits/s    frame=  755 fps=0.1 q=28.0 size=    7174kB time=00:00:28.12 bitrate=2089.8kbits/s    frame=  755 fps=0.1 q=-1.0 Lsize=    7174kB time=00:00:30.12 bitrate=1951.1kbits/s    
video:3589kB audio:0kB subtitle:0kB other streams:0kB global headers:0kB muxing overhead: 99.893135%
[libx264 @ 0x162b440] frame I:4     Avg QP:22.32  size: 23179
[libx264 @ 0x162b440] frame P:363   Avg QP:24.25  size:  7397
[libx264 @ 0x162b440] frame B:388   Avg QP:27.01  size:  2310
[libx264 @ 0x162b440] consecutive B-frames:  1.7% 84.8% 13.5%  0.0%
[libx264 @ 0x162b440] mb I  I16..4: 23.2% 50.4% 26.4%
[libx264 @ 0x162b440] mb P  I16..4:  2.4%  2.5%  0.9%  P16..4: 37.5% 18.6%  9.4%  0.0%  0.0%    skip:28.6%
[libx264 @ 0x162b440] mb B  I16..4:  0.1%  0.2%  0.1%  B16..8: 41.0%  7.0%  1.6%  direct: 1.5%  skip:48.6%  L0:36.0% L1:56.3% BI: 7.7%
[libx264 @ 0x162b440] 8x8 transform intra:44.7% inter:66.2%
[libx264 @ 0x162b440] coded y,u,v intra: 46.3% 14.8% 16.3% inter: 17.3% 3.4% 2.8%
[libx264 @ 0x162b440] i16 v,h,dc,p:  1% 56%  9% 34%
[libx264 @ 0x162b440] i8 v,h,dc,ddl,ddr,vr,hd,vl,hu:  8% 26% 25%  5%  6%  5% 11%  4% 10%
[libx264 @ 0x162b440] i4 v,h,dc,ddl,ddr,vr,hd,vl,hu: 11% 30% 20%  5%  6%  4% 13%  4%  7%
[libx264 @ 0x162b440] Weighted P-Frames: Y:3.0% UV:0.0%
[libx264 @ 0x162b440] ref P L0: 59.4% 15.7% 15.4%  9.3%  0.1%
[libx264 @ 0x162b440] ref B L0: 82.1% 17.1%  0.8%
[libx264 @ 0x162b440] ref B L1: 97.9%  2.1%
[libx264 @ 0x162b440] kb/s:973.29
